<svg xmlns="http://www.w3.org/2000/svg" width="146.77" height="146.9" viewBox="0 0 146.77 146.9">
  <g id="logo_happiness_meter_instant_all" transform="translate(11.224 11.233)">
    <path id="Path_710" data-name="Path 710" d="M105,529.1c2.186-6.784,3.769-13.841,6.652-20.3,13.36-29.529,44.639-46.978,75.748-42.691,32.777,4.522,57.885,28.8,63.378,61.243,7.971,47.11-33.286,90.347-80.648,84.477-32.466-4.023-57.659-27.682-64.066-60.084A18.532,18.532,0,0,0,105,548.883Zm14.735,9.865a58.83,58.83,0,0,0,58.583,58.784c32.41.066,58.8-26.542,58.686-59.17a58.637,58.637,0,1,0-117.273.386Z" transform="translate(-116.224 -476.7)" fill="#767450"/>
    <path id="Path_711" data-name="Path 711" d="M207.335,582.34l10.236-7.532c-24.122-33.168-60.06-26.565-81.221,0l10.113,7.474c8.646-8.5,17.624-16.471,30.567-17.09C190.515,564.547,199.021,573.033,207.335,582.34Z" transform="translate(-114.8 -480.627)" fill="#767450"/>
  </g>
</svg>
