<svg xmlns="http://www.w3.org/2000/svg" width="146.774" height="146.896" viewBox="0 0 146.774 146.896">
  <g id="logo_happiness_meter_instant_all" transform="translate(0 11.987)">
    <path id="Path_710" data-name="Path 710" d="M105,529.094c2.186-6.784,3.769-13.841,6.652-20.294,13.36-29.528,44.64-46.976,75.751-42.69,32.778,4.522,57.887,28.8,63.38,61.241,7.971,47.108-33.287,90.344-80.65,84.474-32.467-4.023-57.661-27.681-64.068-60.082A18.53,18.53,0,0,0,105,548.88Zm14.736,9.864a58.829,58.829,0,0,0,58.584,58.782c32.411.066,58.8-26.541,58.688-59.168a58.639,58.639,0,1,0-117.276.386Z" transform="translate(-105 -477.454)" fill="#767450"/>
    <line id="Line_478" data-name="Line 478" x2="81.22" transform="translate(33.143 82.716)" fill="none" stroke="#767450" stroke-width="13"/>
  </g>
</svg>
