<svg id="Page-1" xmlns="http://www.w3.org/2000/svg" width="31.305" height="31.305" viewBox="0 0 31.305 31.305">
  <path id="Shape" d="M15.652,31.3A15.652,15.652,0,1,0,0,15.652,15.652,15.652,0,0,0,15.652,31.3Zm0-30.187A14.534,14.534,0,1,1,1.118,15.652,14.534,14.534,0,0,1,15.652,1.118Z" transform="translate(0 0)"/>
  <g id="accessibility_2_" data-name="accessibility (2)" transform="translate(6.649 4.574)">
    <path id="Path_30491" data-name="Path 30491" d="M202.423,4.847A2.423,2.423,0,1,0,200,2.423,2.425,2.425,0,0,0,202.423,4.847Z" transform="translate(-193.418)" fill="none" stroke="#1c1c1c" stroke-width="1.25"/>
    <path id="Path_30492" data-name="Path 30492" d="M64.522,111.937l-.022,0-.017,0-.13.039a32.163,32.163,0,0,1-7.469,1.337,31.469,31.469,0,0,1-7.253-1.277,3.233,3.233,0,0,0-.346-.113c-.822-.216-1.385.619-1.385,1.38s.679,1.117,1.363,1.376v.013l4.12,1.285c.42.16.532.325.589.467a4.2,4.2,0,0,1-.013,1.683l-.251,1.947-1.389,7.629-.013.065-.009.056a1.244,1.244,0,0,0,1.385,1.376c.848,0,1.225-.584,1.385-1.38,0,0,1.212-6.82,1.818-6.82s1.852,6.82,1.852,6.82c.164.8.537,1.38,1.385,1.38a1.243,1.243,0,0,0,1.385-1.38c-.009-.061-.022-.117-.035-.177l-1.406-7.56-.251-1.947a2.785,2.785,0,0,1,.013-1.6.015.015,0,0,0,0-.009,1.543,1.543,0,0,1,.757-.467l3.864-1.35a.423.423,0,0,0,.069-.022c.692-.26,1.385-.619,1.385-1.38S65.344,111.72,64.522,111.937Z" transform="translate(-47.9 -107.055)" fill="none" stroke="#1c1c1c" stroke-width="1.25"/>
  </g>
</svg>
