<?xml version="1.0" encoding="utf-8"?>
<!-- Generator: Adobe Illustrator 27.1.1, SVG Export Plug-In . SVG Version: 6.00 Build 0)  -->
<svg version="1.1" id="Capa_1" xmlns="http://www.w3.org/2000/svg" xmlns:xlink="http://www.w3.org/1999/xlink" x="0px" y="0px"
	 viewBox="0 0 512 512" style="enable-background:new 0 0 512 512;" xml:space="preserve">
<style type="text/css">
	.st0{fill:#CB9F60;}
</style>
<g>
	<g>
		<path class="st0" d="M501.8,225.1c5.7,0,10.2-4.6,10.2-10.2v-41c0-5.7-4.6-10.2-10.2-10.2H471v-32.6c0-13.9-4.1-27.6-12-39.9
			l-30.7-45.9c-3.8-5.7-13.2-5.7-17,0l-30.8,46.1c-7.8,12.1-11.9,25.8-11.9,39.7v32.6h-61.4v-32.6c0-13.9-4.1-27.6-12-39.9
			l-30.7-45.9c-3.8-5.7-13.2-5.7-17,0l-30.8,46.1c-7.8,12.1-11.9,25.8-11.9,39.7v32.6h-61.4v-32.6c0-13.9-4.1-27.6-12-39.9
			l-30.7-45.9c-3.8-5.7-13.2-5.7-17,0L52.8,91.4C45.1,103.5,41,117.2,41,131.1v32.6H10.2c-5.7,0-10.2,4.6-10.2,10.2v41
			c0,5.7,4.6,10.2,10.2,10.2H41V348H10.2C4.6,348,0,352.6,0,358.2v41c0,5.7,4.6,10.2,10.2,10.2H41v51.2c0,5.7,4.6,10.2,10.2,10.2
			h81.9c5.7,0,10.2-4.6,10.2-10.2v-51.2h61.4v51.2c0,5.7,4.6,10.2,10.2,10.2H297c5.7,0,10.2-4.6,10.2-10.2v-51.2h61.4v51.2
			c0,5.7,4.6,10.2,10.2,10.2h81.9c5.7,0,10.2-4.6,10.2-10.2v-51.2h30.7c5.7,0,10.2-4.6,10.2-10.2v-41c0-5.7-4.6-10.2-10.2-10.2H471
			V225.1L501.8,225.1L501.8,225.1z M471,184.1h20.5v20.5H471V184.1z M41,388.9H20.5v-20.5H41V388.9z M41,204.6H20.5v-20.5H41V204.6z
			 M122.9,173.9v41v143.4v41v51.2H61.4v-51.2v-41V214.9v-41v-42.8c0-9.9,3-19.9,8.5-28.5l22.2-33.2l22.1,33
			c5.7,8.8,8.6,18.7,8.6,28.7C122.9,131.1,122.9,173.9,122.9,173.9z M204.8,388.9h-61.4v-20.5h61.4V388.9z M204.8,348h-61.4V225.1
			h61.4V348z M204.8,204.6h-61.4v-20.5h61.4V204.6z M286.7,173.9v41v143.4v41v51.2h-61.4v-51.2v-41V214.9v-41v-42.8
			c0-9.9,3-19.9,8.5-28.5L256,69.4l22.1,33c5.7,8.8,8.6,18.7,8.6,28.7V173.9z M368.6,388.9h-61.4v-20.5h61.4V388.9z M368.6,348
			h-61.4V225.1h61.4V348z M368.6,204.6h-61.4v-20.5h61.4V204.6z M450.6,173.9v41v143.4v41v51.2h-61.4v-51.2v-41V214.9v-41v-42.8
			c0-9.9,3-19.9,8.5-28.5l22.2-33.2l22.1,33c5.7,8.8,8.6,18.7,8.6,28.7V173.9z M491.5,368.5v20.5H471v-20.5H491.5z"/>
	</g>
</g>
</svg>
