<svg xmlns="http://www.w3.org/2000/svg" width="35.501" height="35.499" viewBox="0 0 35.501 35.499">
  <g id="XMLID_191_" transform="translate(0 -0.012)">
    <path id="XMLID_1136_" d="M35.478,9.584a5.689,5.689,0,0,0-2.762-4.415V4.186a.693.693,0,0,0-1.387,0v.983A5.69,5.69,0,0,0,28.56,9.651c-.027.177-.013.4-.016,9.853h-1.4v-4.18a.693.693,0,0,0-.693-.693h-.728a8.478,8.478,0,0,0-3.755-6.378L18.444,5.9V4.447a2.3,2.3,0,0,0,1.262-.773.693.693,0,1,0-1.067-.886A.915.915,0,1,1,17.6,1.351.693.693,0,1,0,17.1.059a2.3,2.3,0,0,0-.039,4.268V5.9l-3.526,2.35a8.478,8.478,0,0,0-3.755,6.378H9.048a.693.693,0,0,0-.693.693V19.5h-1.4c0-9.474.011-9.676-.016-9.853A5.69,5.69,0,0,0,4.172,5.168V4.186a.693.693,0,0,0-1.387,0v.983A5.689,5.689,0,0,0,.023,9.584C-.01,9.714,0,8.828,0,20.2v14.62a.693.693,0,0,0,.693.693H34.807a.693.693,0,0,0,.693-.693V20.2c0-10.769.012-10.479-.022-10.614Zm-32-3.215A4.311,4.311,0,0,1,5.45,9.062H1.508A4.311,4.311,0,0,1,3.479,6.369ZM1.388,10.449H5.57V19.5H1.388ZM8.355,34.124H5.565V30.292a.693.693,0,1,0-1.387,0v3.832H1.388V25.068H8.355Zm0-10.443H1.388v-2.79H8.355ZM14.3,9.407l3.45-2.3,3.45,2.3a7.1,7.1,0,0,1,3.133,5.224H11.168A7.1,7.1,0,0,1,14.3,9.407Zm7.282,24.717H13.919V28.185a3.818,3.818,0,0,1,3.813-3.813h.037a3.818,3.818,0,0,1,3.813,3.813v5.939Zm4.177,0h-2.79V28.185a5.206,5.206,0,0,0-5.2-5.2h-.037a5.206,5.206,0,0,0-5.2,5.2v5.939H9.742V20.195H25.759c0,.264,0,10.084,0,13.929Zm0-15.316H9.742v-2.79H25.759ZM32.022,6.369a4.311,4.311,0,0,1,1.971,2.693H30.051A4.311,4.311,0,0,1,32.022,6.369Zm2.091,27.755h-2.79V30.292a.693.693,0,1,0-1.387,0v3.832h-2.79V25.068h6.967Zm0-10.443H27.146v-2.79h6.967Zm0-4.177H29.931V10.449h4.183Z" transform="translate(0 0)"/>
  </g>
</svg>
