<svg xmlns="http://www.w3.org/2000/svg" width="24.306" height="24.625" viewBox="0 0 24.306 24.625">
  <g id="fax" transform="translate(-0.646 2.403) rotate(-7)">
    <path id="Path_30017" data-name="Path 30017" d="M65.247,78.624a2.624,2.624,0,1,0-5.247,0V91.786a2.624,2.624,0,1,0,5.247,0Z" transform="translate(-57.376 -72.677)" fill="#767450"/>
    <path id="Path_30018" data-name="Path 30018" d="M271,212h6.559v1.312H271Z" transform="translate(-259.149 -202.73)" fill="#767450"/>
    <path id="Path_30019" data-name="Path 30019" d="M183.886,121H171.27a3.9,3.9,0,0,1,.066.656v13.162a3.932,3.932,0,0,1-1.768,3.28h14.318a.656.656,0,0,0,.656-.656V121.656A.656.656,0,0,0,183.886,121Zm-9.227,14.474a.656.656,0,1,1,.656-.656A.656.656,0,0,1,174.659,135.474Zm0-2.624a.656.656,0,1,1,.656-.656A.656.656,0,0,1,174.659,132.85Zm0-2.624a.656.656,0,1,1,.656-.656A.656.656,0,0,1,174.659,130.227Zm2.624,5.247a.656.656,0,1,1,.656-.656A.656.656,0,0,1,177.283,135.474Zm0-2.624a.656.656,0,1,1,.656-.656A.656.656,0,0,1,177.283,132.85Zm0-2.624a.656.656,0,1,1,.656-.656A.656.656,0,0,1,177.283,130.227Zm2.624,5.247a.656.656,0,1,1,.656-.656A.656.656,0,0,1,179.907,135.474Zm0-2.624a.656.656,0,1,1,.656-.656A.656.656,0,0,1,179.907,132.85Zm0-2.624a.656.656,0,1,1,.656-.656A.656.656,0,0,1,179.907,130.227Zm1.968-3.28a.656.656,0,0,1-.656.656h-7.871a.656.656,0,0,1-.656-.656v-2.624a.656.656,0,0,1,.656-.656h7.871a.656.656,0,0,1,.656.656Z" transform="translate(-162.152 -115.709)" fill="#767450"/>
    <path id="Path_30020" data-name="Path 30020" d="M249.527,0h-7.871A.656.656,0,0,0,241,.656v3.28h9.183V.656A.656.656,0,0,0,249.527,0ZM246.9,2.624H244.28a.656.656,0,1,1,0-1.312H246.9a.656.656,0,0,1,0,1.312Z" transform="translate(-230.461)" fill="#767450"/>
    <path id="Path_30021" data-name="Path 30021" d="M1.312,134.818V121.656A3.9,3.9,0,0,1,1.378,121H.656a.656.656,0,0,0-.656.656v15.786a.656.656,0,0,0,.656.656H3.08A3.932,3.932,0,0,1,1.312,134.818Z" transform="translate(0.001 -115.709)" fill="#767450"/>
  </g>
</svg>
