<svg xmlns="http://www.w3.org/2000/svg" width="21.5" height="21.5" viewBox="0 0 21.5 21.5">
  <g id="map_1_" data-name="map (1)" transform="translate(-0.004)">
    <g id="Group_16343" data-name="Group 16343" transform="translate(0.004 0)">
      <path id="Path_30352" data-name="Path 30352" d="M20.737,0a.768.768,0,0,0-.344.081l-5.819,2.91L7.994.066c-.011,0-.023-.005-.035-.01A.768.768,0,0,0,7.869.029.8.8,0,0,0,7.776.01a1.142,1.142,0,0,0-.187,0A.8.8,0,0,0,7.5.029a.768.768,0,0,0-.091.028c-.012,0-.024.005-.035.01L.46,3.138A.768.768,0,0,0,0,3.84V20.733a.768.768,0,0,0,1.08.7l6.6-2.933,6.6,2.933c.012,0,.024,0,.035.007a.678.678,0,0,0,.581-.013c.012-.005.026,0,.038-.008l6.143-3.071a.768.768,0,0,0,.425-.687V.768A.768.768,0,0,0,20.737,0ZM6.915,17.162,1.54,19.551V4.339L6.915,1.95Zm6.911,2.389L8.45,17.162V1.95l5.375,2.389Zm6.143-2.364-4.607,2.3V4.314l4.607-2.3Z" transform="translate(-0.004 0)" fill="#1c1e25"/>
    </g>
  </g>
</svg>
