<svg xmlns="http://www.w3.org/2000/svg" width="18.01" height="18.048" viewBox="0 0 18.01 18.048">
  <g id="phone-call" transform="translate(0.001)">
    <g id="Group_15012" data-name="Group 15012" transform="translate(-0.001)">
      <path id="Path_30016" data-name="Path 30016" d="M18.077,13.245l-2.519-2.519a1.675,1.675,0,0,0-2.788.63,1.714,1.714,0,0,1-1.979,1.079A7.767,7.767,0,0,1,6.113,7.758,1.63,1.63,0,0,1,7.193,5.779a1.675,1.675,0,0,0,.63-2.788L5.3.472a1.8,1.8,0,0,0-2.429,0L1.166,2.181c-1.709,1.8.18,6.566,4.408,10.794s9,6.207,10.794,4.408l1.709-1.709A1.8,1.8,0,0,0,18.077,13.245Z" transform="translate(-0.539 0)" fill="#b89752"/>
    </g>
  </g>
</svg>
